<svg width="65" height="73" viewBox="0 0 65 73" fill="none" xmlns="http://www.w3.org/2000/svg">
<mask id="path-1-outside-1_1399_910" maskUnits="userSpaceOnUse" x="0" y="8.96875" width="65" height="64" fill="black">
<rect fill="white" y="8.96875" width="65" height="64"/>
<path fill-rule="evenodd" clip-rule="evenodd" d="M32.03 10.9688C18.1138 10.9688 6.80124 22.1163 6.53483 35.9688H6.53003L5.33651 56.8553C3.26741 59.0585 2 62.0235 2 65.2845C2 68.4238 4.54491 70.9688 7.68421 70.9688H8.76513H55.2949H57.3158C60.4551 70.9688 63 68.4238 63 65.2845C63 61.5294 61.3194 58.1669 58.6694 55.9079L57.53 35.9688H57.5252C57.2588 22.1163 45.9462 10.9688 32.03 10.9688Z"/>
</mask>
<path fill-rule="evenodd" clip-rule="evenodd" d="M32.03 10.9688C18.1138 10.9688 6.80124 22.1163 6.53483 35.9688H6.53003L5.33651 56.8553C3.26741 59.0585 2 62.0235 2 65.2845C2 68.4238 4.54491 70.9688 7.68421 70.9688H8.76513H55.2949H57.3158C60.4551 70.9688 63 68.4238 63 65.2845C63 61.5294 61.3194 58.1669 58.6694 55.9079L57.53 35.9688H57.5252C57.2588 22.1163 45.9462 10.9688 32.03 10.9688Z" fill="#FFF0B9"/>
<path d="M6.53483 35.9688V37.9688H8.49674L8.53446 36.0072L6.53483 35.9688ZM6.53003 35.9688V33.9688H4.64105L4.53329 35.8547L6.53003 35.9688ZM5.33651 56.8553L6.79441 58.2244L7.2918 57.6948L7.33326 56.9694L5.33651 56.8553ZM58.6694 55.9079L56.6727 56.022L56.7214 56.8754L57.372 57.43L58.6694 55.9079ZM57.53 35.9688L59.5268 35.8547L59.419 33.9688H57.53V35.9688ZM57.5252 35.9688L55.5256 36.0072L55.5633 37.9688H57.5252V35.9688ZM8.53446 36.0072C8.77996 23.242 19.2055 12.9688 32.03 12.9688V8.96875C17.0221 8.96875 4.82252 20.9905 4.5352 35.9303L8.53446 36.0072ZM6.53003 37.9688H6.53483V33.9688H6.53003V37.9688ZM7.33326 56.9694L8.52677 36.0828L4.53329 35.8547L3.33977 56.7412L7.33326 56.9694ZM4 65.2845C4 62.5521 5.0597 60.0716 6.79441 58.2244L3.87861 55.4862C1.47512 58.0455 0 61.4949 0 65.2845H4ZM7.68421 68.9688C5.64948 68.9688 4 67.3193 4 65.2845H0C0 69.5284 3.44034 72.9688 7.68421 72.9688V68.9688ZM8.76513 68.9688H7.68421V72.9688H8.76513V68.9688ZM55.2949 68.9688H8.76513V72.9688H55.2949V68.9688ZM57.3158 68.9688H55.2949V72.9688H57.3158V68.9688ZM61 65.2845C61 67.3193 59.3505 68.9688 57.3158 68.9688V72.9688C61.5597 72.9688 65 69.5284 65 65.2845H61ZM57.372 57.43C59.5953 59.3252 61 62.1398 61 65.2845H65C65 60.9191 63.0436 57.0086 59.9669 54.3859L57.372 57.43ZM55.5333 36.0828L56.6727 56.022L60.6662 55.7938L59.5268 35.8547L55.5333 36.0828ZM57.5252 37.9688H57.53V33.9688H57.5252V37.9688ZM32.03 12.9688C44.8546 12.9688 55.2801 23.242 55.5256 36.0072L59.5249 35.9303C59.2375 20.9905 47.0379 8.96875 32.03 8.96875V12.9688Z" fill="#937F4E" mask="url(#path-1-outside-1_1399_910)"/>
<path d="M29.9015 10.3813C25.4232 14.3882 13.7893 21.4652 11.1632 13.5633C7.91241 3.78156 34.1442 6.13864 29.9015 10.3813Z" stroke="#D70000" stroke-width="3"/>
<path d="M34.0001 9.42173C41.0712 6.1219 54.7577 6.34186 54.1529 12.6035C52.9206 25.361 37.5357 12.9573 34.0001 9.42173Z" stroke="#D70000" stroke-width="3"/>
<rect x="31.209" y="7.01367" width="2.66566" height="3.98645" rx="1" transform="rotate(3.00441 31.209 7.01367)" fill="#B30000"/>
<rect x="36" y="34" width="4" height="4" rx="2" fill="#937F4E"/>
<rect x="24" y="34" width="4" height="4" rx="2" fill="#937F4E"/>
</svg>
