<svg width="65" height="67" viewBox="0 0 65 67" fill="none" xmlns="http://www.w3.org/2000/svg">
<mask id="path-1-outside-1_1399_911" maskUnits="userSpaceOnUse" x="0" y="0" width="65" height="67" fill="black">
<rect fill="white" width="65" height="67"/>
<path fill-rule="evenodd" clip-rule="evenodd" d="M31.8958 2C17.9796 2 6.66705 13.1475 6.40064 27H6.39584L5.15262 47.5131C3.06436 49.9345 1.85638 53.1294 2.01369 56.5903L2.04273 57.2293C2.2213 61.1579 6.06777 63.8553 9.82224 62.6849L11.0717 62.2954C13.872 61.4225 16.8852 61.5222 19.6216 62.5783L20.2139 62.8069C22.9236 63.8528 25.9056 63.961 28.6841 63.1144L29.8432 62.7612C32.4768 61.9587 35.2973 62.0131 37.8981 62.9165L39.8288 63.5872C42.4303 64.4909 45.2858 64.3103 47.7527 63.0861C49.7902 62.075 52.1061 61.77 54.3359 62.219L55.2395 62.401C58.94 63.1462 62.3959 60.3167 62.3959 56.542V56C62.3959 52.4145 60.9444 49.168 58.5968 46.8161L57.3958 27H57.391C57.1246 13.1475 45.8121 2 31.8958 2Z"/>
</mask>
<path fill-rule="evenodd" clip-rule="evenodd" d="M31.8958 2C17.9796 2 6.66705 13.1475 6.40064 27H6.39584L5.15262 47.5131C3.06436 49.9345 1.85638 53.1294 2.01369 56.5903L2.04273 57.2293C2.2213 61.1579 6.06777 63.8553 9.82224 62.6849L11.0717 62.2954C13.872 61.4225 16.8852 61.5222 19.6216 62.5783L20.2139 62.8069C22.9236 63.8528 25.9056 63.961 28.6841 63.1144L29.8432 62.7612C32.4768 61.9587 35.2973 62.0131 37.8981 62.9165L39.8288 63.5872C42.4303 64.4909 45.2858 64.3103 47.7527 63.0861C49.7902 62.075 52.1061 61.77 54.3359 62.219L55.2395 62.401C58.94 63.1462 62.3959 60.3167 62.3959 56.542V56C62.3959 52.4145 60.9444 49.168 58.5968 46.8161L57.3958 27H57.391C57.1246 13.1475 45.8121 2 31.8958 2Z" fill="#E7E7E7"/>
<path d="M6.40064 27V29H8.36255L8.40027 27.0385L6.40064 27ZM6.39584 27V25H4.51338L4.3995 26.879L6.39584 27ZM5.15262 47.5131L6.66717 48.8193L7.10811 48.3081L7.14896 47.6341L5.15262 47.5131ZM2.01369 56.5903L4.01163 56.4995L2.01369 56.5903ZM2.04273 57.2293L0.0447947 57.3201L2.04273 57.2293ZM9.82224 62.6849L9.22701 60.7755L9.227 60.7756L9.82224 62.6849ZM11.0717 62.2954L11.6669 64.2048L11.6669 64.2048L11.0717 62.2954ZM19.6216 62.5783L20.3418 60.7125L20.3418 60.7125L19.6216 62.5783ZM20.2139 62.8069L20.934 60.9411L20.2139 62.8069ZM28.6841 63.1144L29.267 65.0276H29.267L28.6841 63.1144ZM29.8432 62.7612L29.2602 60.8481H29.2602L29.8432 62.7612ZM37.8981 62.9165L37.2419 64.8058L37.8981 62.9165ZM39.8288 63.5872L40.4851 61.698L39.8288 63.5872ZM47.7527 63.0861L46.8637 61.2946V61.2946L47.7527 63.0861ZM54.3359 62.219L53.9411 64.1797L54.3359 62.219ZM55.2395 62.401L54.8447 64.3616L54.8447 64.3616L55.2395 62.401ZM58.5968 46.8161L56.6005 46.9371L56.6463 47.693L57.1813 48.229L58.5968 46.8161ZM57.3958 27L59.3922 26.879L59.2783 25H57.3958V27ZM57.391 27L55.3914 27.0385L55.4291 29H57.391V27ZM8.40027 27.0385C8.64577 14.2732 19.0713 4 31.8958 4V0C16.8879 0 4.68833 12.0218 4.40101 26.9615L8.40027 27.0385ZM6.39584 29H6.40064V25H6.39584V29ZM7.14896 47.6341L8.39218 27.121L4.3995 26.879L3.15628 47.3922L7.14896 47.6341ZM4.01163 56.4995C3.87845 53.5697 4.89873 50.8699 6.66717 48.8193L3.63807 46.207C1.22999 48.9991 -0.1657 52.6892 0.0157516 56.6811L4.01163 56.4995ZM4.04067 57.1384L4.01163 56.4995L0.0157516 56.6811L0.0447947 57.3201L4.04067 57.1384ZM9.227 60.7756C6.72403 61.5558 4.15972 59.7575 4.04067 57.1384L0.0447947 57.3201C0.282892 62.5582 5.41152 66.1549 10.4175 64.5943L9.227 60.7756ZM10.4764 60.386L9.22701 60.7755L10.4175 64.5943L11.6669 64.2048L10.4764 60.386ZM20.3418 60.7125C17.1843 59.4938 13.7076 59.3788 10.4764 60.3861L11.6669 64.2048C14.0364 63.4661 16.586 63.5505 18.9015 64.4442L20.3418 60.7125ZM20.934 60.9411L20.3418 60.7125L18.9015 64.4442L19.4937 64.6728L20.934 60.9411ZM28.1011 61.2013C25.7501 61.9176 23.2269 61.826 20.934 60.9411L19.4937 64.6728C22.6204 65.8795 26.0611 66.0045 29.267 65.0276L28.1011 61.2013ZM29.2602 60.8481L28.1011 61.2013L29.267 65.0276L30.4261 64.6744L29.2602 60.8481ZM38.5544 61.0273C35.5535 59.9849 32.2991 59.9221 29.2602 60.8481L30.4261 64.6744C32.6546 63.9953 35.0412 64.0414 37.2419 64.8058L38.5544 61.0273ZM40.4851 61.698L38.5544 61.0273L37.2419 64.8058L39.1726 65.4765L40.4851 61.698ZM46.8637 61.2946C44.8779 62.28 42.5792 62.4254 40.4851 61.698L39.1726 65.4765C42.2813 66.5564 45.6938 66.3406 48.6417 64.8777L46.8637 61.2946ZM54.7307 60.2584C52.066 59.7218 49.2985 60.0863 46.8637 61.2946L48.6417 64.8777C50.2819 64.0638 52.1461 63.8182 53.9411 64.1797L54.7307 60.2584ZM55.6343 60.4404L54.7307 60.2584L53.9411 64.1797L54.8447 64.3616L55.6343 60.4404ZM60.3959 56.542C60.3959 59.0536 58.0965 60.9362 55.6343 60.4403L54.8447 64.3616C59.7834 65.3562 64.3959 61.5799 64.3959 56.542H60.3959ZM60.3959 56V56.542H64.3959V56H60.3959ZM57.1813 48.229C59.1699 50.2212 60.3959 52.9655 60.3959 56H64.3959C64.3959 51.8634 62.7189 48.1147 60.0123 45.4032L57.1813 48.229ZM55.3995 27.121L56.6005 46.9371L60.5932 46.6951L59.3922 26.879L55.3995 27.121ZM57.391 29H57.3958V25H57.391V29ZM31.8958 4C44.7204 4 55.1459 14.2732 55.3914 27.0385L59.3907 26.9615C59.1034 12.0218 46.9037 0 31.8958 0V4Z" fill="#6B6B6B" mask="url(#path-1-outside-1_1399_911)"/>
<rect x="39.6387" y="25" width="2" height="6" rx="1" transform="rotate(45 39.6387 25)" fill="#565656"/>
<rect x="41.0527" y="32.0703" width="2" height="6" rx="1" transform="rotate(135 41.0527 32.0703)" fill="#565656"/>
<rect x="23.8103" y="33.4846" width="2" height="6" rx="1" transform="rotate(-135 23.8103 33.4846)" fill="#565656"/>
<rect x="22.396" y="26.4143" width="2" height="6" rx="1" transform="rotate(-45 22.396 26.4143)" fill="#565656"/>
</svg>
