<svg width="65" height="64" viewBox="0 0 65 64" fill="none" xmlns="http://www.w3.org/2000/svg">
<mask id="path-1-outside-1_1399_904" maskUnits="userSpaceOnUse" x="0" y="0" width="65" height="64" fill="black">
<rect fill="white" width="65" height="64"/>
<path fill-rule="evenodd" clip-rule="evenodd" d="M32.03 2C18.1138 2 6.80124 13.1475 6.53483 27H6.53003L5.33651 47.8865C3.26741 50.0898 2 53.0548 2 56.3158C2 59.4551 4.54491 62 7.68421 62H8.76513H55.2949H57.3158C60.4551 62 63 59.4551 63 56.3158C63 52.5607 61.3194 49.1981 58.6694 46.9392L57.53 27H57.5252C57.2588 13.1475 45.9462 2 32.03 2Z"/>
</mask>
<path fill-rule="evenodd" clip-rule="evenodd" d="M32.03 2C18.1138 2 6.80124 13.1475 6.53483 27H6.53003L5.33651 47.8865C3.26741 50.0898 2 53.0548 2 56.3158C2 59.4551 4.54491 62 7.68421 62H8.76513H55.2949H57.3158C60.4551 62 63 59.4551 63 56.3158C63 52.5607 61.3194 49.1981 58.6694 46.9392L57.53 27H57.5252C57.2588 13.1475 45.9462 2 32.03 2Z" fill="#C8C7FF"/>
<path d="M6.53483 27V29H8.49674L8.53446 27.0385L6.53483 27ZM6.53003 27V25H4.64105L4.53329 26.8859L6.53003 27ZM5.33651 47.8865L6.79441 49.2557L7.2918 48.726L7.33326 48.0006L5.33651 47.8865ZM58.6694 46.9392L56.6727 47.0533L56.7214 47.9067L57.372 48.4612L58.6694 46.9392ZM57.53 27L59.5268 26.8859L59.419 25H57.53V27ZM57.5252 27L55.5256 27.0385L55.5633 29H57.5252V27ZM8.53446 27.0385C8.77996 14.2732 19.2055 4 32.03 4V0C17.0221 0 4.82252 12.0218 4.5352 26.9615L8.53446 27.0385ZM6.53003 29H6.53483V25H6.53003V29ZM7.33326 48.0006L8.52677 27.1141L4.53329 26.8859L3.33977 47.7724L7.33326 48.0006ZM4 56.3158C4 53.5834 5.0597 51.1029 6.79441 49.2557L3.87861 46.5174C1.47512 49.0767 0 52.5262 0 56.3158H4ZM7.68421 60C5.64948 60 4 58.3505 4 56.3158H0C0 60.5597 3.44034 64 7.68421 64V60ZM8.76513 60H7.68421V64H8.76513V60ZM55.2949 60H8.76513V64H55.2949V60ZM57.3158 60H55.2949V64H57.3158V60ZM61 56.3158C61 58.3505 59.3505 60 57.3158 60V64C61.5597 64 65 60.5597 65 56.3158H61ZM57.372 48.4612C59.5953 50.3564 61 53.171 61 56.3158H65C65 51.9504 63.0436 48.0398 59.9669 45.4171L57.372 48.4612ZM55.5333 27.1141L56.6727 47.0533L60.6662 46.8251L59.5268 26.8859L55.5333 27.1141ZM57.5252 29H57.53V25H57.5252V29ZM32.03 4C44.8546 4 55.2801 14.2732 55.5256 27.0385L59.5249 26.9615C59.2375 12.0218 47.0379 0 32.03 0V4Z" fill="#6E6CA7" mask="url(#path-1-outside-1_1399_904)"/>
<rect x="24" y="27" width="4" height="7" rx="2" fill="#6E6CA7"/>
<rect x="38" y="27" width="4" height="7" rx="2" fill="#6E6CA7"/>
</svg>
