<svg width="46" height="45" viewBox="0 0 46 45" fill="none" xmlns="http://www.w3.org/2000/svg">
<g clip-path="url(#clip0_1217_3315)">
<path fill-rule="evenodd" clip-rule="evenodd" d="M22.5211 1.40625C12.7363 1.40625 4.78212 9.24434 4.5948 18.9844H4.59143L3.75223 33.6702C2.2974 35.2194 1.40625 37.3042 1.40625 39.597C1.40625 41.8044 3.19564 43.5938 5.40296 43.5938H6.16298H38.8792H40.3002C42.5075 43.5938 44.2969 41.8044 44.2969 39.597C44.2969 36.9567 43.1152 34.5924 41.2519 33.0041L40.4508 18.9844H40.4474C40.2601 9.24434 32.3059 1.40625 22.5211 1.40625Z" fill="#FFC7C7"/>
<mask id="mask0_1217_3315" style="mask-type:luminance" maskUnits="userSpaceOnUse" x="0" y="0" width="46" height="45">
<path d="M45.7031 0H0V45H45.7031V0Z" fill="white"/>
<path fill-rule="evenodd" clip-rule="evenodd" d="M22.5211 1.40625C12.7363 1.40625 4.78212 9.24434 4.5948 18.9844H4.59143L3.75223 33.6702C2.2974 35.2194 1.40625 37.3042 1.40625 39.597C1.40625 41.8044 3.19564 43.5938 5.40296 43.5938H6.16298H38.8792H40.3002C42.5075 43.5938 44.2969 41.8044 44.2969 39.597C44.2969 36.9567 43.1152 34.5924 41.2519 33.0041L40.4508 18.9844H40.4474C40.2601 9.24434 32.3059 1.40625 22.5211 1.40625Z" fill="black"/>
</mask>
<g mask="url(#mask0_1217_3315)">
<path d="M4.5948 18.9844V20.3906H5.97427L6.00079 19.0114L4.5948 18.9844ZM4.59143 18.9844V17.5781H3.26324L3.18747 18.9041L4.59143 18.9844ZM3.75223 33.6702L4.77732 34.6329L5.12705 34.2605L5.1562 33.7504L3.75223 33.6702ZM41.2519 33.0041L39.848 33.0844L39.8822 33.6844L40.3397 34.0743L41.2519 33.0041ZM40.4508 18.9844L41.8548 18.9041L41.779 17.5781H40.4508V18.9844ZM40.4474 18.9844L39.0414 19.0114L39.0679 20.3906H40.4474V18.9844ZM6.00079 19.0114C6.17341 10.0358 13.5039 2.8125 22.5211 2.8125V0C11.9687 0 3.39083 8.45283 3.18881 18.9573L6.00079 19.0114ZM4.59143 20.3906H4.5948V17.5781H4.59143V20.3906ZM5.1562 33.7504L5.99538 19.0646L3.18747 18.9041L2.34828 33.59L5.1562 33.7504ZM2.8125 39.597C2.8125 37.6758 3.5576 35.9317 4.77732 34.6329L2.72715 32.7075C1.03719 34.5071 0 36.9325 0 39.597H2.8125ZM5.40296 42.1875C3.97229 42.1875 2.8125 41.0277 2.8125 39.597H0C0 42.581 2.41899 45 5.40296 45V42.1875ZM6.16298 42.1875H5.40296V45H6.16298V42.1875ZM38.8792 42.1875H6.16298V45H38.8792V42.1875ZM40.3002 42.1875H38.8792V45H40.3002V42.1875ZM42.8906 39.597C42.8906 41.0277 41.7308 42.1875 40.3002 42.1875V45C43.2842 45 45.7031 42.581 45.7031 39.597H42.8906ZM40.3397 34.0743C41.9029 35.4068 42.8906 37.3859 42.8906 39.597H45.7031C45.7031 36.5276 44.3275 33.778 42.1642 31.9339L40.3397 34.0743ZM39.0469 19.0646L39.848 33.0844L42.6559 32.9239L41.8548 18.9041L39.0469 19.0646ZM40.4474 20.3906H40.4508V17.5781H40.4474V20.3906ZM22.5211 2.8125C31.5384 2.8125 38.8688 10.0358 39.0414 19.0114L41.8534 18.9573C41.6514 8.45283 33.0735 0 22.5211 0V2.8125Z" fill="#AE7B7B"/>
</g>
<path d="M19.6875 20.3906C19.6875 19.614 19.0579 18.9844 18.2812 18.9844C17.5046 18.9844 16.875 19.614 16.875 20.3906V22.5C16.875 23.2767 17.5046 23.9062 18.2812 23.9062C19.0579 23.9062 19.6875 23.2767 19.6875 22.5V20.3906Z" fill="#AE7B7B"/>
<path d="M29.5312 20.3906C29.5312 19.614 28.9017 18.9844 28.125 18.9844C27.3483 18.9844 26.7188 19.614 26.7188 20.3906V22.5C26.7188 23.2767 27.3483 23.9062 28.125 23.9062C28.9017 23.9062 29.5312 23.2767 29.5312 22.5V20.3906Z" fill="#AE7B7B"/>
</g>
<defs>
<clipPath id="clip0_1217_3315">
<rect width="45.7031" height="45" fill="white"/>
</clipPath>
</defs>
</svg>
