<svg width="125" height="129" viewBox="0 0 125 129" fill="none" xmlns="http://www.w3.org/2000/svg">
<g opacity="0.5" clip-path="url(#clip0_1399_1120)">
<path fill-rule="evenodd" clip-rule="evenodd" d="M61.3381 3.85083C34.5762 3.85083 12.8213 25.3139 12.3089 51.9852H12.2997L9.90889 91.4805C5.893 96.1426 3.56997 102.294 3.87248 108.958L3.92833 110.188C4.27173 117.752 11.6688 122.945 18.8889 120.692L21.2917 119.942C26.6769 118.261 32.4715 118.453 37.7338 120.487L38.8729 120.927C44.0839 122.941 49.8185 123.149 55.1617 121.519L57.3908 120.839C62.4554 119.294 67.8794 119.398 72.881 121.138L76.5939 122.429C81.5967 124.169 87.0881 123.821 91.8321 121.464C95.7504 119.518 100.204 118.93 104.492 119.795L106.23 120.145C113.346 121.58 119.992 116.132 119.992 108.865V107.821C119.992 100.918 117.201 94.6668 112.686 90.1385L110.377 51.9852H110.367C109.855 25.3139 88.1002 3.85083 61.3381 3.85083Z" fill="#E7E7E7"/>
<mask id="mask0_1399_1120" style="mask-type:luminance" maskUnits="userSpaceOnUse" x="0" y="0" width="125" height="129">
<path d="M125 0H0V129H125V0Z" fill="white"/>
<path fill-rule="evenodd" clip-rule="evenodd" d="M61.3381 3.85083C34.5762 3.85083 12.8213 25.3139 12.3089 51.9852H12.2997L9.90889 91.4805C5.893 96.1426 3.56997 102.294 3.87248 108.958L3.92833 110.188C4.27173 117.752 11.6688 122.945 18.8889 120.692L21.2917 119.942C26.6769 118.261 32.4715 118.453 37.7338 120.487L38.8729 120.927C44.0839 122.941 49.8185 123.149 55.1617 121.519L57.3908 120.839C62.4554 119.294 67.8794 119.398 72.881 121.138L76.5939 122.429C81.5967 124.169 87.0881 123.821 91.8321 121.464C95.7504 119.518 100.204 118.93 104.492 119.795L106.23 120.145C113.346 121.58 119.992 116.132 119.992 108.865V107.821C119.992 100.918 117.201 94.6668 112.686 90.1385L110.377 51.9852H110.367C109.855 25.3139 88.1002 3.85083 61.3381 3.85083Z" fill="black"/>
</mask>
<g mask="url(#mask0_1399_1120)">
<path d="M12.309 51.9851V55.8358H16.0819L16.1544 52.0592L12.309 51.9851ZM12.2997 51.9851V48.1343H8.67961L8.46061 51.7521L12.2997 51.9851ZM9.90891 91.4804L12.8215 93.9954L13.6695 93.0111L13.748 91.7134L9.90891 91.4804ZM112.686 90.1385L108.847 90.3714L108.935 91.8268L109.964 92.8588L112.686 90.1385ZM110.377 51.9851L114.216 51.7521L113.997 48.1343H110.377V51.9851ZM110.367 51.9851L106.522 52.0592L106.594 55.8358H110.367V51.9851ZM16.1544 52.0592C16.6265 27.4812 36.6756 7.70149 61.3381 7.70149V0C32.4768 0 9.01605 23.1465 8.46351 51.9109L16.1544 52.0592ZM12.2997 55.8358H12.309V48.1343H12.2997V55.8358ZM13.748 91.7134L16.1388 52.218L8.46061 51.7521L6.0698 91.2477L13.748 91.7134ZM7.7147 108.783C7.45859 103.142 9.42066 97.9435 12.8215 93.9954L6.99632 88.9657C2.36539 94.3416 -0.318626 101.446 0.0303199 109.132L7.7147 108.783ZM7.77055 110.013L7.7147 108.783L0.0303199 109.132L0.086172 110.363L7.77055 110.013ZM17.7443 117.016C12.9309 118.518 7.99949 115.055 7.77055 110.013L0.086172 110.363C0.544051 120.448 10.4068 127.373 20.0337 124.368L17.7443 117.016ZM20.147 116.266L17.7443 117.016L20.0337 124.368L22.4364 123.618L20.147 116.266ZM39.1189 116.894C33.0468 114.548 26.3608 114.326 20.147 116.266L22.4364 123.618C26.9931 122.196 31.8962 122.358 36.3491 124.079L39.1189 116.894ZM40.2577 117.334L39.1189 116.894L36.3491 124.079L37.4879 124.519L40.2577 117.334ZM54.0406 117.835C49.5195 119.214 44.6671 119.038 40.2577 117.334L37.4879 124.519C43.5008 126.843 50.1175 127.083 56.2827 125.202L54.0406 117.835ZM56.2696 117.155L54.0406 117.835L56.2827 125.202L58.5118 124.522L56.2696 117.155ZM74.1431 117.5C68.3721 115.493 62.1137 115.372 56.2696 117.155L58.5118 124.522C62.7973 123.215 67.387 123.304 71.6191 124.775L74.1431 117.5ZM77.856 118.792L74.1431 117.5L71.6191 124.775L75.332 126.067L77.856 118.792ZM90.1225 118.015C86.3037 119.912 81.8831 120.192 77.856 118.792L75.332 126.067C81.3102 128.146 87.8727 127.73 93.5418 124.914L90.1225 118.015ZM105.251 116.02C100.127 114.987 94.8048 115.689 90.1225 118.015L93.5418 124.914C96.696 123.347 100.281 122.874 103.733 123.57L105.251 116.02ZM106.989 116.37L105.251 116.02L103.733 123.57L105.471 123.92L106.989 116.37ZM116.146 108.864C116.146 113.7 111.724 117.325 106.989 116.37L105.471 123.92C114.968 125.835 123.838 118.564 123.838 108.864H116.146ZM116.146 107.821V108.864H123.838V107.821H116.146ZM109.964 92.8588C113.788 96.6945 116.146 101.978 116.146 107.821H123.838C123.838 99.8564 120.613 92.6387 115.408 87.4181L109.964 92.8588ZM106.538 52.218L108.847 90.3714L116.525 89.9055L114.216 51.7521L106.538 52.218ZM110.367 55.8358H110.377V48.1343H110.367V55.8358ZM61.3381 7.70149C86.0008 7.70149 106.05 27.4812 106.522 52.0592L114.213 51.9109C113.66 23.1465 90.1995 0 61.3381 0V7.70149Z" fill="#6B6B6B"/>
</g>
<path d="M77.5881 52.2186C78.3391 51.4667 78.3391 50.2476 77.5881 49.4957C76.8371 48.7438 75.6195 48.7438 74.8684 49.4957L69.4292 54.9415C68.6782 55.6934 68.6782 56.9125 69.4292 57.6644C70.1802 58.4163 71.3978 58.4163 72.1488 57.6644L77.5881 52.2186Z" fill="#565656"/>
<path d="M74.868 63.1088C75.619 63.8607 76.8367 63.8607 77.5877 63.1088C78.3387 62.3569 78.3387 61.1378 77.5877 60.3859L72.1484 54.9401C71.3974 54.1882 70.1798 54.1882 69.4288 54.9401C68.6777 55.692 68.6777 56.9111 69.4288 57.663L74.868 63.1088Z" fill="#565656"/>
<path d="M44.4292 60.3861C43.6782 61.138 43.6782 62.3571 44.4292 63.109C45.1802 63.8609 46.3978 63.8609 47.1489 63.109L52.5881 57.6632C53.3391 56.9113 53.3391 55.6923 52.5881 54.9403C51.8371 54.1884 50.6195 54.1884 49.8685 54.9403L44.4292 60.3861Z" fill="#565656"/>
<path d="M47.1487 49.496C46.3977 48.7441 45.1801 48.7441 44.429 49.496C43.678 50.2479 43.678 51.467 44.429 52.2189L49.8683 57.6646C50.6193 58.4165 51.837 58.4165 52.588 57.6646C53.339 56.9127 53.339 55.6937 52.588 54.9418L47.1487 49.496Z" fill="#565656"/>
</g>
<defs>
<clipPath id="clip0_1399_1120">
<rect width="125" height="129" fill="white"/>
</clipPath>
</defs>
</svg>
